<svg width="60" height="60" viewBox="0 0 60 60" fill="none" xmlns="http://www.w3.org/2000/svg">
<path d="M50.4862 12.3777L38.869 0.760574C38.3538 0.245347 37.7159 0 37.078 0H11.3044C9.90588 0 8.75275 1.15313 8.75275 2.5516V43.1319C8.75275 44.5304 9.90588 45.6835 11.3044 45.6835H27.5095V51.6455L25.4731 49.7808C24.4549 48.8853 22.7988 48.8853 21.9033 49.9035C21.0078 50.9217 21.0078 52.5778 22.026 53.4733L28.405 59.3493C28.7853 59.7296 30.196 60.6006 31.9748 59.3493L38.3538 53.4733C39.372 52.4551 39.372 50.9217 38.4765 49.9035C37.4583 48.8853 35.9249 48.8853 34.9067 49.7808L32.6127 51.8908V45.6958H48.8178C50.2163 45.6958 51.2468 44.5427 51.2468 43.2669V14.1688C51.259 13.5309 51.0014 12.893 50.4862 12.3777ZM39.7646 8.6362L44.5856 13.4082H39.7646V8.6362ZM32.625 40.7153V24.7677C32.625 23.3693 31.4718 22.2161 30.0734 22.2161C28.6749 22.2161 27.5218 23.3693 27.5218 24.7677V40.7153H13.8682V5.10321H34.6736V15.6899C34.6736 17.0884 35.8267 18.2415 37.2252 18.2415H46.4135V40.703H32.625V40.7153Z" fill="#1C274C"/>
</svg>
