<svg width="30" height="30" viewBox="0 0 30 30" fill="none" xmlns="http://www.w3.org/2000/svg">
<path d="M6.27723 16.6452C6.27723 16.0038 5.76745 15.4839 5.13861 15.4839C4.50978 15.4839 4 16.0038 4 16.6452H6.27723ZM27 16.6452C27 16.0038 26.4902 15.4839 25.8614 15.4839C25.2326 15.4839 24.7228 16.0038 24.7228 16.6452H27ZM14.6022 17.4793C14.2155 17.985 14.3038 18.7147 14.7997 19.1093C15.2955 19.5036 16.011 19.4135 16.3978 18.9078L14.6022 17.4793ZM22.3186 11.1659C22.7053 10.6602 22.6169 9.93043 22.1211 9.5359C21.6253 9.14152 20.9098 9.23164 20.523 9.73734L22.3186 11.1659ZM14.6022 18.9078C14.989 19.4135 15.7045 19.5036 16.2003 19.1093C16.6962 18.7147 16.7845 17.985 16.3978 17.4793L14.6022 18.9078ZM10.477 9.73734C10.0902 9.23164 9.37476 9.14152 8.87893 9.5359C8.38309 9.93043 8.29465 10.6602 8.6814 11.1659L10.477 9.73734ZM14.3614 18.1935C14.3614 18.8349 14.8712 19.3548 15.5 19.3548C16.1288 19.3548 16.6386 18.8349 16.6386 18.1935H14.3614ZM16.6386 1.16129C16.6386 0.519933 16.1288 0 15.5 0C14.8712 0 14.3614 0.519933 14.3614 1.16129H16.6386ZM4 16.6452V18.1935H6.27723V16.6452H4ZM4 18.1935C4 21.3725 6.4709 24 9.57921 24V21.6774C7.78258 21.6774 6.27723 20.1456 6.27723 18.1935H4ZM9.57921 24H21.4208V21.6774H9.57921V24ZM21.4208 24C24.5291 24 27 21.3725 27 18.1935H24.7228C24.7228 20.1456 23.2174 21.6774 21.4208 21.6774V24ZM27 18.1935V16.6452H24.7228V18.1935H27ZM16.3978 18.9078L22.3186 11.1659L20.523 9.73734L14.6022 17.4793L16.3978 18.9078ZM16.3978 17.4793L10.477 9.73734L8.6814 11.1659L14.6022 18.9078L16.3978 17.4793ZM16.6386 18.1935V1.16129H14.3614V18.1935H16.6386Z" fill="black"/>
</svg>
