<svg width="61" height="61" viewBox="0 0 61 61" fill="none" xmlns="http://www.w3.org/2000/svg">
<g clip-path="url(#clip0_162_4)">
<path fill-rule="evenodd" clip-rule="evenodd" d="M5.09351 7.58362C2.50601 7.58362 0.406006 9.68362 0.406006 12.2711V44.1461C0.406006 46.7336 2.50601 48.8336 5.09351 48.8336H19.156C22.516 48.8336 24.6873 49.6024 25.9398 50.5136C27.1285 51.3761 27.5935 52.4261 27.5935 53.5211C27.5935 54.267 27.8898 54.9824 28.4173 55.5099C28.9447 56.0373 29.6601 56.3336 30.406 56.3336C31.1519 56.3336 31.8673 56.0373 32.3947 55.5099C32.9222 54.9824 33.2185 54.267 33.2185 53.5211C33.2185 52.4261 33.6835 51.3761 34.8723 50.5136C36.1248 49.6024 38.296 48.8336 41.656 48.8336H55.7185C58.306 48.8336 60.406 46.7336 60.406 44.1461V12.2711C60.406 9.68362 58.306 7.58362 55.7185 7.58362H41.656C37.3285 7.58362 33.7585 8.91112 31.261 11.3336C30.9573 11.6336 30.6723 11.9374 30.406 12.2561C30.1377 11.9336 29.8523 11.6256 29.551 11.3336C27.0535 8.91112 23.4835 7.58362 19.156 7.58362H5.09351ZM33.2185 44.9599C35.506 43.8011 38.3635 43.2086 41.656 43.2086H54.781V13.2086H41.656C38.4835 13.2086 36.4285 14.1574 35.176 15.3724C33.9198 16.5911 33.2185 18.3236 33.2185 20.3974V44.9599ZM27.5935 44.9599V20.3974C27.5935 18.3236 26.8923 16.5911 25.636 15.3724C24.3835 14.1574 22.3285 13.2086 19.156 13.2086H6.03101V43.2086H19.156C22.4485 43.2086 25.306 43.8011 27.5935 44.9599Z" fill="black"/>
<path fill-rule="evenodd" clip-rule="evenodd" d="M5.09351 7.58362C2.50601 7.58362 0.406006 9.68362 0.406006 12.2711V44.1461C0.406006 46.7336 2.50601 48.8336 5.09351 48.8336H19.156C22.516 48.8336 24.6873 49.6024 25.9398 50.5136C27.1285 51.3761 27.5935 52.4261 27.5935 53.5211C27.5935 54.267 27.8898 54.9824 28.4173 55.5099C28.9447 56.0373 29.6601 56.3336 30.406 56.3336C31.1519 56.3336 31.8673 56.0373 32.3947 55.5099C32.9222 54.9824 33.2185 54.267 33.2185 53.5211C33.2185 52.4261 33.6835 51.3761 34.8723 50.5136C36.1248 49.6024 38.296 48.8336 41.656 48.8336H55.7185C58.306 48.8336 60.406 46.7336 60.406 44.1461V12.2711C60.406 9.68362 58.306 7.58362 55.7185 7.58362H41.656C37.3285 7.58362 33.7585 8.91112 31.261 11.3336C30.9573 11.6336 30.6723 11.9374 30.406 12.2561C30.1377 11.9336 29.8523 11.6256 29.551 11.3336C27.0535 8.91112 23.4835 7.58362 19.156 7.58362H5.09351ZM33.2185 44.9599C35.506 43.8011 38.3635 43.2086 41.656 43.2086H54.781V13.2086H41.656C38.4835 13.2086 36.4285 14.1574 35.176 15.3724C33.9198 16.5911 33.2185 18.3236 33.2185 20.3974V44.9599ZM27.5935 44.9599V20.3974C27.5935 18.3236 26.8923 16.5911 25.636 15.3724C24.3835 14.1574 22.3285 13.2086 19.156 13.2086H6.03101V43.2086H19.156C22.4485 43.2086 25.306 43.8011 27.5935 44.9599Z" fill="black"/>
</g>
<defs>
<clipPath id="clip0_162_4">
<rect width="60" height="60" fill="white" transform="translate(0.406006 0.0836182)"/>
</clipPath>
</defs>
</svg>
