<svg width="60" height="60" viewBox="0 0 60 60" fill="none" xmlns="http://www.w3.org/2000/svg">
<path fill-rule="evenodd" clip-rule="evenodd" d="M27.359 3.125H32.641C37.2355 3.12495 40.8745 3.12493 43.7225 3.50785C46.6535 3.9019 49.026 4.7322 50.897 6.6031C52.7678 8.47403 53.598 10.8464 53.9923 13.7775C54.375 16.6255 54.375 20.2646 54.375 24.859V35.141C54.375 39.7355 54.375 43.3745 53.9923 46.2225C53.598 49.1535 52.7678 51.526 50.897 53.397C49.026 55.2678 46.6535 56.098 43.7225 56.4923C40.8745 56.875 37.2355 56.875 32.641 56.875H27.359C22.7646 56.875 19.1255 56.875 16.2775 56.4923C13.3464 56.098 10.974 55.2678 9.1031 53.397C7.2322 51.526 6.4019 49.1535 6.00785 46.2225C5.62493 43.3745 5.62495 39.7355 5.625 35.141V24.8589C5.62495 20.2645 5.62493 16.6255 6.00785 13.7775C6.4019 10.8464 7.2322 8.47403 9.1031 6.6031C10.974 4.7322 13.3464 3.9019 16.2775 3.50785C19.1255 3.12493 22.7645 3.12495 27.359 3.125ZM16.7771 7.2244C14.2619 7.56255 12.8128 8.19673 11.7548 9.25475C10.6967 10.3128 10.0626 11.7619 9.7244 14.2771C9.37898 16.8463 9.375 20.233 9.375 25V35C9.375 39.767 9.37898 43.1538 9.7244 45.723C10.0626 48.238 10.6967 49.6872 11.7548 50.7452C12.8128 51.8032 14.2619 52.4375 16.7771 52.7755C19.3463 53.121 22.733 53.125 27.5 53.125H32.5C37.267 53.125 40.6538 53.121 43.223 52.7755C45.738 52.4375 47.1872 51.8032 48.2452 50.7452C49.3032 49.6872 49.9375 48.238 50.2755 45.723C50.621 43.1538 50.625 39.767 50.625 35V25C50.625 20.233 50.621 16.8463 50.2755 14.2771C49.9375 11.7619 49.3032 10.3128 48.2452 9.25475C47.1872 8.19673 45.738 7.56255 43.223 7.2244C40.6538 6.87898 37.267 6.875 32.5 6.875H27.5C22.733 6.875 19.3463 6.87898 16.7771 7.2244ZM30 13.125C31.0355 13.125 31.875 13.9645 31.875 15V18.125H35C36.0355 18.125 36.875 18.9645 36.875 20C36.875 21.0355 36.0355 21.875 35 21.875H31.875V25C31.875 26.0355 31.0355 26.875 30 26.875C28.9645 26.875 28.125 26.0355 28.125 25V21.875H24.9999C23.9644 21.875 23.1249 21.0355 23.1249 20C23.1249 18.9645 23.9644 18.125 24.9999 18.125H28.125V15C28.125 13.9645 28.9645 13.125 30 13.125ZM18.125 35C18.125 33.9645 18.9645 33.125 20 33.125H40C41.0355 33.125 41.875 33.9645 41.875 35C41.875 36.0355 41.0355 36.875 40 36.875H20C18.9645 36.875 18.125 36.0355 18.125 35ZM20.625 45C20.625 43.9645 21.4645 43.125 22.5 43.125H37.5C38.5355 43.125 39.375 43.9645 39.375 45C39.375 46.0355 38.5355 46.875 37.5 46.875H22.5C21.4645 46.875 20.625 46.0355 20.625 45Z" fill="#020202"/>
</svg>
