<svg width="60" height="60" viewBox="0 0 60 60" fill="none" xmlns="http://www.w3.org/2000/svg">
<g clip-path="url(#clip0_162_62)">
<path d="M55.7133 0H4.28672C1.92299 0 0 1.92299 0 4.28672V55.7133C0 58.077 1.92299 60 4.28672 60H55.7133C58.077 60 60 58.077 60 55.7133V4.28672C60 1.92299 58.077 0 55.7133 0ZM56.087 55.7133C56.087 55.9194 55.9194 56.087 55.7133 56.087H4.28672C4.08063 56.087 3.91303 55.9194 3.91303 55.7133V4.28672C3.91303 4.08063 4.08063 3.91303 4.28672 3.91303H55.7133C55.9194 3.91303 56.087 4.08063 56.087 4.28672V55.7133Z" fill="black"/>
<path d="M47.9263 7.78687H12.0736C9.70986 7.78687 7.78687 9.70986 7.78687 12.0736V47.9262C7.78687 50.2899 9.70986 52.2129 12.0736 52.2129H39.8202C40.3606 52.2129 40.8498 51.9938 41.204 51.6395L51.6395 41.2041C51.9938 40.85 52.2129 40.3607 52.2129 39.8203V12.0736C52.2129 9.70999 50.2899 7.78687 47.9263 7.78687ZM41.7767 45.5331V41.7768H45.533L41.7767 45.5331ZM48.2999 37.8638H39.8202C38.7397 37.8638 37.8638 38.7398 37.8638 39.8203V48.2999H12.0736C11.8675 48.2999 11.6999 48.1323 11.6999 47.9262V12.0736C11.6999 11.8675 11.8675 11.6999 12.0736 11.6999H47.9262C48.1323 11.6999 48.2999 11.8675 48.2999 12.0736V37.8638Z" fill="black"/>
</g>
<defs>
<clipPath id="clip0_162_62">
<rect width="60" height="60" fill="white"/>
</clipPath>
</defs>
</svg>
