<svg width="60" height="60" viewBox="0 0 60 60" fill="none" xmlns="http://www.w3.org/2000/svg">
<g clip-path="url(#clip0_162_68)">
<path d="M20.7647 30.1665V37.1148C20.7647 37.9656 21.4546 38.6553 22.3052 38.6553H28.0405V44.3906C28.0405 45.2414 28.7303 45.9311 29.581 45.9311H36.529C37.3797 45.9311 38.0695 45.2414 38.0695 44.3906V38.6553H43.8049C44.6556 38.6553 45.3454 37.9656 45.3454 37.1148V30.1665C45.3454 29.3157 44.6556 28.626 43.8049 28.626H38.0695V22.8908C38.0695 22.0399 37.3797 21.3502 36.529 21.3502H29.581C28.7303 21.3502 28.0405 22.0399 28.0405 22.8908V28.626H22.3052C21.4544 28.626 20.7647 29.3157 20.7647 30.1665ZM23.8458 31.7071H29.581C30.4317 31.7071 31.1216 31.0174 31.1216 30.1665V24.4313H34.9884V30.1665C34.9884 31.0174 35.6783 31.7071 36.529 31.7071H42.2644V35.5743H36.529C35.6783 35.5743 34.9884 36.264 34.9884 37.1148V42.85H31.1216V37.1148C31.1216 36.264 30.4317 35.5743 29.581 35.5743H23.8458V31.7071ZM52.9136 0H7.08619C6.2355 0 5.54565 0.689696 5.54565 1.54053V58.4595C5.54565 59.3103 6.2355 60 7.08619 60H52.9138C53.7644 60 54.4543 59.3103 54.4543 58.4595V1.54053C54.4541 0.689696 53.7644 0 52.9136 0ZM20.7749 3.08106H24.8054V9.83953L23.6782 9.04415C23.412 8.85636 23.1011 8.76239 22.7901 8.76239C22.479 8.76239 22.1681 8.85636 21.9018 9.04415L20.7749 9.83937V3.08106ZM11.6562 56.9189H8.62672V3.08106H11.6562V56.9189ZM51.3731 56.9189H14.7372V3.08106H17.6938V12.8118C17.6938 13.3872 18.0146 13.9148 18.5254 14.1795C19.0364 14.4443 19.652 14.4023 20.1225 14.0704L22.7899 12.1882L25.4576 14.0704C25.9278 14.4023 26.5439 14.4443 27.0546 14.1795C27.5654 13.9147 27.8861 13.3872 27.8861 12.8118V3.08106H51.3728V56.9189H51.3731Z" fill="black"/>
</g>
<defs>
<clipPath id="clip0_162_68">
<rect width="60" height="60" fill="white"/>
</clipPath>
</defs>
</svg>
