<svg width="60" height="60" viewBox="0 0 60 60" fill="none" xmlns="http://www.w3.org/2000/svg">
<path fill-rule="evenodd" clip-rule="evenodd" d="M41.25 5.625C36.7628 5.625 33.125 9.26268 33.125 13.75C33.125 14.2398 33.1683 14.7194 33.2515 15.1853L21.4248 23.464C21.3647 23.506 21.3078 23.551 21.2542 23.5985C19.8748 22.5187 18.1376 21.875 16.25 21.875C11.7627 21.875 8.125 25.5128 8.125 30C8.125 34.4872 11.7627 38.125 16.25 38.125C18.1376 38.125 19.8748 37.4813 21.2542 36.4015C21.3078 36.449 21.3647 36.494 21.4248 36.536L33.2515 44.8147C33.1683 45.2805 33.125 45.7603 33.125 46.25C33.125 50.7372 36.7628 54.375 41.25 54.375C45.7372 54.375 49.375 50.7372 49.375 46.25C49.375 41.7628 45.7372 38.125 41.25 38.125C38.618 38.125 36.2783 39.3765 34.7935 41.3167L23.5951 33.4777C24.0952 32.4235 24.375 31.2445 24.375 30C24.375 28.7555 24.0952 27.5765 23.5951 26.5223L34.7935 18.6832C36.2783 20.6235 38.618 21.875 41.25 21.875C45.7372 21.875 49.375 18.2373 49.375 13.75C49.375 9.26268 45.7372 5.625 41.25 5.625ZM36.875 13.75C36.875 11.3338 38.8338 9.375 41.25 9.375C43.6662 9.375 45.625 11.3338 45.625 13.75C45.625 16.1662 43.6662 18.125 41.25 18.125C38.8338 18.125 36.875 16.1662 36.875 13.75ZM16.25 25.625C13.8338 25.625 11.875 27.5838 11.875 30C11.875 32.4162 13.8338 34.375 16.25 34.375C18.6662 34.375 20.625 32.4162 20.625 30C20.625 27.5838 18.6662 25.625 16.25 25.625ZM41.25 41.875C38.8338 41.875 36.875 43.8338 36.875 46.25C36.875 48.6662 38.8338 50.625 41.25 50.625C43.6662 50.625 45.625 48.6662 45.625 46.25C45.625 43.8338 43.6662 41.875 41.25 41.875Z" fill="black"/>
</svg>
