<svg width="60" height="60" viewBox="0 0 60 60" fill="none" xmlns="http://www.w3.org/2000/svg">
<g clip-path="url(#clip0_162_10)">
<path d="M14.1749 50.9277L24.3263 38.6181L28.9698 44.541L20.0196 55.9228C16.5919 60.2783 10.2491 55.6885 14.1749 50.9277ZM26.0304 22.8955C26.9972 19.7412 26.5528 17.0459 22.92 13.042L14.0431 2.36326C12.7833 0.883772 9.81457 3.05662 11.0548 4.84862L18.1544 13.5937C19.4972 15.2246 17.0021 17.3828 15.6153 15.7031L8.2716 6.66014C6.90441 5.09276 4.07726 7.16307 5.50793 8.95506C7.57824 11.4453 10.7814 15.5127 12.8517 18.0029C14.2872 19.4629 12.1046 21.626 10.6886 19.8047L3.39855 10.8203C2.32921 9.65819 0.581168 10.3808 0.117301 11.7383C-0.380746 13.1885 0.84484 14.248 1.6798 15.3222L9.81457 25.8301C12.339 28.7549 15.1612 30.4883 18.4425 29.5068C18.9454 29.3555 19.5607 29.0478 20.2198 28.6426L42.0753 56.8555C43.2521 58.374 45.5226 58.5351 46.9972 57.3096L47.3341 57.0312C48.9943 55.6494 49.2628 53.125 47.8419 51.4941L24.6974 24.9023C25.3712 24.1504 25.8644 23.4375 26.0304 22.8955ZM32.2169 29.0478L35.8155 24.6826C31.1866 13.208 48.34 -2.08498 56.6554 4.94627C66.7579 13.4961 51.7433 34.1015 41.1915 29.0088L36.9288 34.4238L32.2169 29.0478Z" fill="black"/>
</g>
<defs>
<clipPath id="clip0_162_10">
<rect width="60" height="60" fill="white"/>
</clipPath>
</defs>
</svg>
