<svg width="60" height="60" viewBox="0 0 60 60" fill="none" xmlns="http://www.w3.org/2000/svg">
<path d="M52.7215 10.307C52.2802 9.26332 51.546 8.38066 50.6213 7.75453C49.6965 7.13016 48.5705 6.76207 47.3729 6.76207H42.3742V5.89969H35.1287C35.1617 5.66531 35.1801 5.42355 35.1801 5.18004C35.1799 2.32359 32.8563 0 29.9999 0C27.1434 0 24.8199 2.32359 24.8199 5.18004C24.8199 5.42355 24.8381 5.66531 24.8712 5.89969H17.6257V6.76207H12.6268C11.8284 6.76207 11.0613 6.92508 10.3674 7.2198C9.32368 7.66113 8.43927 8.39531 7.81302 9.32004C7.18864 10.2465 6.82056 11.3708 6.82056 12.5684V54.1956C6.82056 54.9902 6.98356 55.7593 7.27829 56.4551C7.71962 57.4987 8.4538 58.3814 9.37853 59.0075C10.305 59.6338 11.4293 60 12.6268 60H47.3729C48.1695 60 48.9384 59.8389 49.6324 59.5423C50.678 59.1028 51.5605 58.3668 52.1868 57.442C52.8111 56.5173 53.1792 55.3913 53.1792 54.1956V12.5684C53.1792 11.7701 53.0181 11.0029 52.7215 10.307ZM29.9999 3.25746C31.0601 3.25746 31.9225 4.11984 31.9225 5.18004C31.9225 5.43457 31.8711 5.67621 31.7815 5.89969H28.22C28.1285 5.67633 28.0772 5.43457 28.0772 5.18004C28.0773 4.11984 28.9416 3.25746 29.9999 3.25746ZM49.7258 54.1956C49.7258 54.5252 49.6599 54.8291 49.5409 55.1093C49.3651 55.5286 49.0648 55.8912 48.6877 56.1475C48.3104 56.4001 47.8674 56.5466 47.3729 56.5466H12.6268C12.2972 56.5466 11.9915 56.4806 11.7113 56.3634C11.2901 56.1858 10.9294 55.8837 10.6749 55.5083C10.4222 55.1311 10.2757 54.688 10.2738 54.1955V12.5684C10.2738 12.2387 10.3398 11.933 10.4588 11.6528C10.6364 11.2316 10.9367 10.869 11.312 10.6164C11.6892 10.3637 12.1323 10.2172 12.6267 10.2154H17.6255V10.935C17.6255 12.2863 18.7205 13.3813 20.0736 13.3813H39.9278C41.2791 13.3813 42.3741 12.2863 42.3741 10.935V10.2154H47.3728C47.7025 10.2154 48.0082 10.2813 48.2884 10.4003C48.7077 10.5761 49.0703 10.8764 49.3248 11.2535C49.5793 11.6306 49.7258 12.0738 49.7258 12.5682V54.1956Z" fill="black"/>
<path d="M22.0037 20.0006H18.2976V23.7067H22.0037V20.0006Z" fill="black"/>
<path d="M41.7039 20.0006H26.4275V23.7067H41.7039V20.0006Z" fill="black"/>
<path d="M22.0037 30.9521H18.2976V34.6582H22.0037V30.9521Z" fill="black"/>
<path d="M41.7039 30.9521H26.4275V34.6582H41.7039V30.9521Z" fill="black"/>
<path d="M22.0037 41.9055H18.2976V45.6116H22.0037V41.9055Z" fill="black"/>
<path d="M41.7039 41.9055H26.4275V45.6116H41.7039V41.9055Z" fill="black"/>
</svg>
