<svg width="60" height="60" viewBox="0 0 60 60" fill="none" xmlns="http://www.w3.org/2000/svg">
<path d="M0.600006 30C3.36358 24.5791 7.57214 20.0277 12.7606 16.849C17.949 13.6703 23.9153 11.988 30 11.988C36.0847 11.988 42.051 13.6703 47.2394 16.849C52.4279 20.0277 56.6364 24.5791 59.4 30C56.6364 35.421 52.4279 39.9723 47.2394 43.151C42.051 46.3297 36.0847 48.012 30 48.012C23.9153 48.012 17.949 46.3297 12.7606 43.151C7.57214 39.9723 3.36358 35.421 0.600006 30ZM30 42C33.1826 42 36.2349 40.7357 38.4853 38.4853C40.7357 36.2349 42 33.1826 42 30C42 26.8174 40.7357 23.7652 38.4853 21.5147C36.2349 19.2643 33.1826 18 30 18C26.8174 18 23.7652 19.2643 21.5147 21.5147C19.2643 23.7652 18 26.8174 18 30C18 33.1826 19.2643 36.2349 21.5147 38.4853C23.7652 40.7357 26.8174 42 30 42ZM30 36C28.4087 36 26.8826 35.3679 25.7574 34.2427C24.6321 33.1174 24 31.5913 24 30C24 28.4087 24.6321 26.8826 25.7574 25.7574C26.8826 24.6322 28.4087 24 30 24C31.5913 24 33.1174 24.6322 34.2426 25.7574C35.3679 26.8826 36 28.4087 36 30C36 31.5913 35.3679 33.1174 34.2426 34.2427C33.1174 35.3679 31.5913 36 30 36Z" fill="#1C274C"/>
</svg>
