<svg width="60" height="60" viewBox="0 0 60 60" fill="none" xmlns="http://www.w3.org/2000/svg">
<g clip-path="url(#clip0_89_6)">
<path d="M30 0C13.4307 0 0 13.4307 0 30C0 46.5693 13.4307 60 30 60C46.5693 60 60 46.5693 60 30C60 13.4307 46.5693 0 30 0ZM30 55.3125C16.0199 55.3125 4.6875 43.9801 4.6875 30C4.6875 16.0199 16.0199 4.6875 30 4.6875C43.9801 4.6875 55.3125 16.0199 55.3125 30C55.3125 43.9801 43.9801 55.3125 30 55.3125Z" fill="white"/>
<path d="M39.3384 28.125H37.5L37.5055 22.7087C37.5055 19.4861 34.1584 16.875 30.0202 16.875C25.8874 16.875 22.5348 19.4861 22.5348 22.7087L22.5 28.125H20.6214C19.5868 28.125 18.7903 28.96 18.7903 29.7656L18.75 41.4844C18.75 42.29 19.627 43.125 20.6616 43.125H39.3823C40.4132 43.125 41.2097 42.29 41.2097 41.4844L41.25 29.7656C41.25 28.96 40.3692 28.125 39.3384 28.125ZM26.25 22.5C26.25 20.8923 27.9602 19.791 30.0202 19.791C32.082 19.791 33.75 20.8923 33.75 22.5L33.7243 28.125H26.25V22.5Z" fill="white"/>
</g>
<defs>
<clipPath id="clip0_89_6">
<rect width="60" height="60" fill="white"/>
</clipPath>
</defs>
</svg>
