<svg width="60" height="60" viewBox="0 0 60 60" fill="none" xmlns="http://www.w3.org/2000/svg">
<path d="M52.5 35V45C52.5 46.3807 51.3807 47.5 50 47.5H10C8.6193 47.5 7.5 46.3807 7.5 45V35M52.5 35V27.5C52.5 24.7386 50.2615 22.5 47.5 22.5H40M52.5 35H42.5M7.5 35V27.5C7.5 24.7386 9.73857 22.5 12.5 22.5H20M7.5 35H17.5M40 22.5V17.5C40 14.7386 37.7615 12.5 35 12.5H25C22.2386 12.5 20 14.7386 20 17.5V22.5M40 22.5H20M42.5 35H17.5M42.5 35V37.5V32.5M17.5 35V32.5M17.5 35V37.5" stroke="black" stroke-width="5" stroke-linecap="round" stroke-linejoin="round"/>
</svg>
