<svg width="60" height="60" viewBox="0 0 60 60" fill="none" xmlns="http://www.w3.org/2000/svg">
<path d="M50.5417 3.37148H40.5514V0.907266C40.5514 0.406172 40.1454 0 39.6442 0H20.3558C19.8546 0 19.4485 0.406172 19.4485 0.907266V3.37148H9.45853C8.95732 3.37148 8.55127 3.77766 8.55127 4.27875V59.0927C8.55127 59.5938 8.95732 60 9.45853 60H50.5418C51.043 60 51.449 59.5938 51.449 59.0927V4.27875C51.4489 3.77777 51.0428 3.37148 50.5417 3.37148ZM21.2631 1.81453H38.737V9.82523H21.2631V1.81453ZM20.3558 11.6396H39.6443C40.1455 11.6396 40.5515 11.2335 40.5515 10.7324V8.5432H45.0682V53.5179H14.9321V8.5432H19.4487V10.7325C19.4485 11.2335 19.8547 11.6396 20.3558 11.6396ZM10.3658 58.1855V5.18602H19.4487V6.72855H14.0249C13.5237 6.72855 13.1176 7.13473 13.1176 7.63582V54.425C13.1176 54.9261 13.5237 55.3323 14.0249 55.3323H45.9754C46.4767 55.3323 46.8827 54.9261 46.8827 54.425V7.63594C46.8827 7.13484 46.4767 6.72867 45.9754 6.72867H40.5515V5.18602H49.6345V58.1855H10.3658Z" fill="black"/>
<path d="M41.3748 14.9226H24.7017C24.2005 14.9226 23.7944 15.3288 23.7944 15.8299V19.8618C23.7944 20.3629 24.2006 20.7691 24.7017 20.7691H41.3748C41.876 20.7691 42.2821 20.3629 42.2821 19.8618V15.8299C42.2821 15.3288 41.876 14.9226 41.3748 14.9226ZM40.4675 18.9547H25.609V16.7373H40.4675V18.9547Z" fill="black"/>
<path d="M41.3748 23.7418H24.7017C24.2005 23.7418 23.7944 24.148 23.7944 24.6491V28.6812C23.7944 29.1823 24.2006 29.5884 24.7017 29.5884H41.3748C41.876 29.5884 42.2821 29.1823 42.2821 28.6812V24.6491C42.2821 24.1481 41.876 23.7418 41.3748 23.7418ZM40.4675 27.7741H25.609V25.5566H40.4675V27.7741Z" fill="black"/>
<path d="M41.5704 32.5613H24.8975C24.3963 32.5613 23.9902 32.9675 23.9902 33.4685V37.5006C23.9902 38.0017 24.3963 38.4079 24.8975 38.4079H41.5705C42.0717 38.4079 42.4777 38.0017 42.4777 37.5006V33.4685C42.4777 32.9675 42.0714 32.5613 41.5704 32.5613ZM40.6632 36.5932H25.8048V34.3757H40.6632V36.5932Z" fill="black"/>
<path d="M41.5704 42.1257H24.8975C24.3963 42.1257 23.9902 42.5319 23.9902 43.033V47.0651C23.9902 47.5662 24.3963 47.9723 24.8975 47.9723H41.5705C42.0717 47.9723 42.4777 47.5662 42.4777 47.0651V43.033C42.4777 42.5319 42.0714 42.1257 41.5704 42.1257ZM40.6632 46.1577H25.8048V43.9401H40.6632V46.1577Z" fill="black"/>
<path d="M22.3455 15.1884C21.9913 14.8342 21.4168 14.8342 21.0624 15.1884L18.7277 17.5231L17.6521 16.4476C17.2976 16.0933 16.7232 16.0933 16.369 16.4476C16.0147 16.8019 16.0147 17.3764 16.369 17.7306L18.086 19.4476C18.2632 19.6248 18.4953 19.7134 18.7276 19.7134C18.9597 19.7134 19.192 19.6248 19.3692 19.4476L22.3455 16.4714C22.6998 16.1171 22.6998 15.5426 22.3455 15.1884Z" fill="black"/>
<path d="M22.3454 24.0077C21.9907 23.6535 21.4164 23.6535 21.0622 24.0077L18.7274 26.3424L17.6519 25.2669C17.2974 24.9125 16.7229 24.9124 16.3689 25.2669C16.0144 25.6211 16.0144 26.1956 16.3688 26.5498L18.0858 28.267C18.256 28.4371 18.4867 28.5327 18.7274 28.5327C18.9681 28.5327 19.1988 28.4372 19.369 28.267L22.3454 25.2906C22.6996 24.9364 22.6996 24.3619 22.3454 24.0077Z" fill="black"/>
<path d="M22.3454 32.8618C21.9907 32.5077 21.4164 32.5077 21.0622 32.8618L18.7274 35.1965L17.6519 34.121C17.2974 33.7667 16.7229 33.7665 16.3689 34.121C16.0144 34.4752 16.0144 35.0497 16.3688 35.4039L18.0858 37.1211C18.256 37.2913 18.4867 37.3869 18.7274 37.3869C18.9681 37.3869 19.1988 37.2914 19.369 37.1211L22.3454 34.1448C22.6996 33.7904 22.6996 33.2159 22.3454 32.8618Z" fill="black"/>
<path d="M22.3454 42.9194C21.9907 42.5651 21.4164 42.5651 21.0622 42.9194L18.7274 45.2541L17.6519 44.1786C17.2974 43.8243 16.7229 43.8243 16.3689 44.1786C16.0144 44.5328 16.0144 45.1073 16.3688 45.4615L18.0858 47.1787C18.256 47.3488 18.4867 47.4445 18.7274 47.4445C18.9681 47.4445 19.1988 47.349 19.369 47.1787L22.3454 44.2023C22.6996 43.8481 22.6996 43.2736 22.3454 42.9194Z" fill="black"/>
</svg>
