<svg width="60" height="61" viewBox="0 0 60 61" fill="none" xmlns="http://www.w3.org/2000/svg">
<path fill-rule="evenodd" clip-rule="evenodd" d="M23.2383 4.20329C23.7072 3.73447 24.3431 3.47107 25.0061 3.47107H45.0061C49.1484 3.47107 52.5061 6.82894 52.5061 10.9711V50.9711C52.5061 55.1133 49.1484 58.4711 45.0061 58.4711H15.0061C10.864 58.4711 7.5061 55.1133 7.5061 50.9711V20.9711C7.5061 20.308 7.7695 19.6721 8.23833 19.2033L23.2383 4.20329ZM45.0061 8.47107H27.5061V20.9711C27.5061 22.3518 26.3869 23.4711 25.0061 23.4711H12.5061V50.9711C12.5061 52.3518 13.6254 53.4711 15.0061 53.4711H45.0061C46.3869 53.4711 47.5061 52.3518 47.5061 50.9711V10.9711C47.5061 9.59037 46.3869 8.47107 45.0061 8.47107ZM16.0416 18.4711H22.5061V12.0066L16.0416 18.4711ZM17.5061 33.4711C17.5061 32.0903 18.6254 30.9711 20.0061 30.9711H40.0061C41.3869 30.9711 42.5061 32.0903 42.5061 33.4711C42.5061 34.8518 41.3869 35.9711 40.0061 35.9711H20.0061C18.6254 35.9711 17.5061 34.8518 17.5061 33.4711ZM17.5061 43.4711C17.5061 42.0903 18.6254 40.9711 20.0061 40.9711H40.0061C41.3869 40.9711 42.5061 42.0903 42.5061 43.4711C42.5061 44.8518 41.3869 45.9711 40.0061 45.9711H20.0061C18.6254 45.9711 17.5061 44.8518 17.5061 43.4711Z" fill="black"/>
</svg>
