<svg width="30" height="30" viewBox="0 0 30 30" fill="none" xmlns="http://www.w3.org/2000/svg">
<path d="M14.9628 18.875C17.3791 18.875 19.3378 16.9162 19.3378 14.5C19.3378 12.0838 17.3791 10.125 14.9628 10.125C12.5466 10.125 10.5878 12.0838 10.5878 14.5C10.5878 16.9162 12.5466 18.875 14.9628 18.875Z" stroke="#fff" stroke-width="2.5"/>
<path d="M25.1978 13.1679C25.6831 13.757 25.9257 14.0515 25.9257 14.5C25.9257 14.9485 25.6831 15.243 25.1978 15.8321C23.4227 17.9874 19.5075 22 14.9628 22C10.4182 22 6.50291 17.9874 4.7278 15.8321C4.2426 15.243 4 14.9485 4 14.5C4 14.0515 4.2426 13.757 4.7278 13.1679C6.50291 11.0127 10.4182 7 14.9628 7C19.5075 7 23.4227 11.0127 25.1978 13.1679Z" stroke="#fff" stroke-width="2.5"/>
</svg>
